<?xml version="1.0" encoding="UTF-8" standalone="no"?>
<!-- Created with Inkscape (http://www.inkscape.org/) -->

<svg
   xmlns:dc="http://purl.org/dc/elements/1.1/"
   xmlns:cc="http://creativecommons.org/ns#"
   xmlns:rdf="http://www.w3.org/1999/02/22-rdf-syntax-ns#"
   xmlns:svg="http://www.w3.org/2000/svg"
   xmlns="http://www.w3.org/2000/svg"
   xmlns:sodipodi="http://sodipodi.sourceforge.net/DTD/sodipodi-0.dtd"
   xmlns:inkscape="http://www.inkscape.org/namespaces/inkscape"
   version="1.1"
   id="svg866"
   xml:space="preserve"
   width="849.3208"
   height="413.14188"
   viewBox="0 0 849.3208 413.14188"
   sodipodi:docname="molssi_main_horizontal.svg"
   inkscape:version="0.92.2 5c3e80d, 2017-08-06"><metadata
     id="metadata872"><rdf:RDF><cc:Work
         rdf:about=""><dc:format>image/svg+xml</dc:format><dc:type
           rdf:resource="http://purl.org/dc/dcmitype/StillImage" /><dc:title></dc:title></cc:Work></rdf:RDF></metadata><defs
     id="defs870"><clipPath
       clipPathUnits="userSpaceOnUse"
       id="clipPath894"><path
         d="M 0,0 H 1224 V 792 H 0 Z"
         id="path892"
         inkscape:connector-curvature="0" /></clipPath><clipPath
       clipPathUnits="userSpaceOnUse"
       id="clipPath904"><path
         d="m 1092.24,28.742 h 76.063 v 21.676 h -76.063 z"
         id="path902"
         inkscape:connector-curvature="0" /></clipPath><clipPath
       clipPathUnits="userSpaceOnUse"
       id="clipPath916"><path
         d="m 1092.24,28.742 h 76.063 v 21.676 h -76.063 z"
         id="path914"
         inkscape:connector-curvature="0" /></clipPath><clipPath
       clipPathUnits="userSpaceOnUse"
       id="clipPath948"><path
         d="M 0,0 H 1224 V 792 H 0 Z"
         id="path946"
         inkscape:connector-curvature="0" /></clipPath><clipPath
       clipPathUnits="userSpaceOnUse"
       id="clipPath964"><path
         d="M 328.964,262.603 H 925.5 V 542.132 H 328.964 Z"
         id="path962"
         inkscape:connector-curvature="0" /></clipPath><clipPath
       clipPathUnits="userSpaceOnUse"
       id="clipPath982"><path
         d="M 328.964,262.603 H 925.5 V 542.132 H 328.964 Z"
         id="path980"
         inkscape:connector-curvature="0" /></clipPath></defs><sodipodi:namedview
     pagecolor="#ffffff"
     bordercolor="#666666"
     borderopacity="1"
     objecttolerance="10"
     gridtolerance="10"
     guidetolerance="10"
     inkscape:pageopacity="0"
     inkscape:pageshadow="2"
     inkscape:window-width="1120"
     inkscape:window-height="888"
     id="namedview868"
     showgrid="false"
     inkscape:zoom="0.4226907"
     inkscape:cx="506.03863"
     inkscape:cy="206.57094"
     inkscape:window-x="1402"
     inkscape:window-y="258"
     inkscape:window-maximized="0"
     inkscape:current-layer="g874" /><g
     id="g874"
     inkscape:groupmode="layer"
     inkscape:label="MolSSI Logo 1"
     transform="matrix(1.3333333,0,0,-1.3333333,-403.66853,732.00893)"><g
       id="g876" /><g
       id="g958"><g
         id="g960"
         clip-path="url(#clipPath964)"><text
           transform="matrix(1,0,0,-1,452.5706,387.1377)"
           style="font-variant:normal;font-weight:bold;font-size:43.64559937px;font-family:'DIN Condensed';-inkscape-font-specification:DINCondensed-Bold;writing-mode:lr-tb;fill:#393536;fill-opacity:1;fill-rule:nonzero;stroke:none"
           id="text968"><tspan
             x="0 19.291355 42.685398 63.635284 76.554382 105.62235 129.01639 149.96628 170.91617 193.48094 216.87498 237.82487 260.38965 283.78369 296.70279 319.22391 341.7887 355.49341 376.4433 400.62296 423.18774 444.13763 466.65875"
             y="0"
             sodipodi:role="line"
             id="tspan966">THE MOLECULAR SCIENCES </tspan></text>
</g></g><g
       id="g970"><text
         transform="matrix(1,0,0,-1,452.5706,334.763)"
         style="font-variant:normal;font-weight:bold;font-size:43.64559937px;font-family:'DIN Condensed';-inkscape-font-specification:DINCondensed-Bold;writing-mode:lr-tb;fill:#393536;fill-opacity:1;fill-rule:nonzero;stroke:none"
         id="text974"><tspan
           x="0 22.52113 45.915173 66.865059 86.156418 115.5299 138.09468 161.48872 182.43861 195.35771 209.06242 233.24208 255.76321 275.05457 288.75928 308.05066 331.44467 350.73605"
           y="0"
           sodipodi:role="line"
           id="tspan972">SOFTWARE INSTITUTE</tspan></text>
</g><g
       id="g976"><g
         id="g978"
         clip-path="url(#clipPath982)"><path
           d="m 377.4018,466.631 c -9.663,0 -17.524,-7.861 -17.524,-17.524 0,-9.663 7.861,-17.525 17.524,-17.525 9.663,0 17.524,7.862 17.524,17.525 0,9.663 -7.861,17.524 -17.524,17.524 m 0,-47.925 c -16.764,0 -30.401,13.637 -30.401,30.401 0,16.763 13.637,30.4 30.401,30.4 16.762,0 30.401,-13.637 30.401,-30.4 0,-16.764 -13.639,-30.401 -30.401,-30.401"
           style="fill:#393536;fill-opacity:1;fill-rule:nonzero;stroke:none"
           id="path984"
           inkscape:connector-curvature="0" /><path
           d="m 424.903,529.2563 c -5.793,0 -10.506,-4.713 -10.506,-10.506 0,-5.793 4.713,-10.506 10.506,-10.506 5.793,0 10.506,4.713 10.506,10.506 0,5.793 -4.713,10.506 -10.506,10.506 m 0,-33.888 c -12.893,0 -23.382,10.49 -23.382,23.382 0,12.893 10.489,23.382 23.382,23.382 12.893,0 23.382,-10.489 23.382,-23.382 0,-12.892 -10.489,-23.382 -23.382,-23.382"
           style="fill:#393536;fill-opacity:1;fill-rule:nonzero;stroke:none"
           id="path986"
           inkscape:connector-curvature="0" /><path
           d="m 399.3097,463.9543 -11.146,6.445 22.805,39.442 11.147,-6.445 z"
           style="fill:#393536;fill-opacity:1;fill-rule:nonzero;stroke:none"
           id="path988"
           inkscape:connector-curvature="0" /><path
           d="m 386.96,389.1433 -17.199,33.027 11.421,5.948 17.199,-33.029 z"
           style="fill:#393536;fill-opacity:1;fill-rule:nonzero;stroke:none"
           id="path990"
           inkscape:connector-curvature="0" /><path
           d="m 341.84,293.0046 c 0,-9.664 7.861,-17.526 17.524,-17.526 9.663,0 17.525,7.862 17.525,17.526 0,9.663 -7.862,17.524 -17.525,17.524 -9.663,0 -17.524,-7.861 -17.524,-17.524 m -12.876,0 c 0,16.762 13.637,30.401 30.4,30.401 16.764,0 30.401,-13.639 30.401,-30.401 0,-16.764 -13.637,-30.402 -30.401,-30.402 -16.763,0 -30.4,13.638 -30.4,30.402"
           style="fill:#393536;fill-opacity:1;fill-rule:nonzero;stroke:none"
           id="path992"
           inkscape:connector-curvature="0" /><path
           d="m 378.5645,312.0079 22.558,39.022 -11.149,6.445 -22.556,-39.022 z"
           style="fill:#393536;fill-opacity:1;fill-rule:nonzero;stroke:none"
           id="path994"
           inkscape:connector-curvature="0" /><path
           d="m 404.2822,387.7259 c -7.82,0 -14.182,-6.363 -14.182,-14.182 0,-7.821 6.362,-14.182 14.182,-14.182 7.82,0 14.182,6.361 14.182,14.182 0,7.819 -6.362,14.182 -14.182,14.182 m 0,-41.24 c -14.92,0 -27.059,12.138 -27.059,27.058 0,14.919 12.139,27.058 27.059,27.058 14.92,0 27.059,-12.139 27.059,-27.058 0,-14.92 -12.139,-27.058 -27.059,-27.058"
           style="fill:#ed1c24;fill-opacity:1;fill-rule:nonzero;stroke:none"
           id="path996"
           inkscape:connector-curvature="0" /></g></g></g></svg>