<?xml version="1.0" encoding="UTF-8" standalone="no"?>
<!-- Created with Inkscape (http://www.inkscape.org/) -->

<svg
   width="210mm"
   height="210mm"
   viewBox="0 0 210 210"
   version="1.1"
   id="svg5"
   inkscape:version="1.1.2 (b8e25be833, 2022-02-05)"
   sodipodi:docname="act-cms.svg"
   xmlns:inkscape="http://www.inkscape.org/namespaces/inkscape"
   xmlns:sodipodi="http://sodipodi.sourceforge.net/DTD/sodipodi-0.dtd"
   xmlns="http://www.w3.org/2000/svg"
   xmlns:svg="http://www.w3.org/2000/svg">
  <sodipodi:namedview
     id="namedview7"
     pagecolor="#ffffff"
     bordercolor="#666666"
     borderopacity="1.0"
     inkscape:pageshadow="2"
     inkscape:pageopacity="0.0"
     inkscape:pagecheckerboard="0"
     inkscape:document-units="mm"
     showgrid="false"
     inkscape:zoom="0.77771465"
     inkscape:cx="396.67505"
     inkscape:cy="354.88595"
     inkscape:window-width="2560"
     inkscape:window-height="1369"
     inkscape:window-x="-8"
     inkscape:window-y="-8"
     inkscape:window-maximized="1"
     inkscape:current-layer="layer1" />
  <defs
     id="defs2">
    <pattern
       id="EMFhbasepattern"
       patternUnits="userSpaceOnUse"
       width="6"
       height="6"
       x="0"
       y="0" />
    <pattern
       id="EMFhbasepattern-1"
       patternUnits="userSpaceOnUse"
       width="6"
       height="6"
       x="0"
       y="0" />
  </defs>
  <g
     inkscape:label="Layer 1"
     inkscape:groupmode="layer"
     id="layer1">
    <g
       id="g2552"
       transform="matrix(0.35455801,0,0,0.35455801,-47.6472,166.27917)"
       style="stroke-width:1.00124659;stroke-miterlimit:4;stroke-dasharray:none;fill:#de1c24;fill-opacity:1">
      <path
         d="m 180.86978,51.921965 h 149.93055 a 8.8194446,8.8194446 0 0 0 8.81945,-8.819444 V -62.730815 a 8.8194446,8.8194446 0 0 0 -8.81945,-8.819444 H 180.86978 a 8.8194446,8.8194446 0 0 0 -8.81945,8.819444 V 43.102521 a 8.8194446,8.8194446 0 0 0 8.81945,8.819444 z M 321.98089,-53.91137 V 34.283076 H 189.68922 V -53.91137"
         id="path2008"
         style="fill:#de1c24;fill-opacity:1;stroke-width:1.00124659;stroke-miterlimit:4;stroke-dasharray:none" />
      <path
         d="M 344.0295,69.560854 H 167.64061 a 8.819445,8.819445 0 0 0 0,17.63889 H 344.0295 a 8.819445,8.819445 0 0 0 0,-17.63889 z"
         id="path2010"
         style="fill:#de1c24;fill-opacity:1;stroke-width:1.00124659;stroke-miterlimit:4;stroke-dasharray:none" />
      <path
         d="m 280.08853,-42.446092 a 9.2604168,9.2604168 0 0 0 -11.90625,-0.881944 8.3784724,8.3784724 0 0 0 -0.88195,13.229166 l 20.28473,20.284723 -20.28473,20.284723 a 8.3784724,8.3784724 0 0 0 0.88195,13.229166 9.2604168,9.2604168 0 0 0 11.90625,-0.881944 l 26.01736,-26.4583338 a 8.3784724,8.3784724 0 0 0 0,-12.3472222 z"
         id="path2012"
         style="fill:#de1c24;fill-opacity:1;stroke-width:1.00124659;stroke-miterlimit:4;stroke-dasharray:none" />
      <path
         d="m 243.48783,-43.328036 a 9.2604168,9.2604168 0 0 0 -11.90625,0.881944 l -26.01736,26.458334 a 8.3784724,8.3784724 0 0 0 0,12.3472222 l 26.01736,26.4583338 a 9.2604168,9.2604168 0 0 0 11.90625,0.881944 8.3784724,8.3784724 0 0 0 0.88195,-13.229166 L 224.08505,-9.814147 244.36978,-30.09887 a 8.3784724,8.3784724 0 0 0 -0.88195,-13.229166 z"
         id="path2014"
         style="fill:#de1c24;fill-opacity:1;stroke-width:1.00124659;stroke-miterlimit:4;stroke-dasharray:none" />
    </g>
    <g
       id="g3342"
       style="fill:#ffffff"
       transform="matrix(0.13734422,0,0,0.13734422,0.64627379,4.9444691)">
      <g
         id="g3340"
         style="fill:#ffffff">
        <path
           d="m 443.455,290.286 h 0.002 0.001 l 63.937,-36.914 -16.696,-28.917 -63.937,36.914 -68.686,-39.656 V 142.402 L 422.013,105.488 405.317,76.571 341.38,113.485 272.694,73.828 V 0 h -33.391 v 73.829 l -68.686,39.656 -63.937,-36.915 -16.696,28.917 63.938,36.915 v 79.311 L 85.237,261.369 21.299,224.454 4.604,253.371 68.542,290.285 v 79.311 l -63.938,36.916 16.695,28.917 63.803,-36.837 68.819,39.595 V 512 h 33.391 v -73.829 l 68.551,-39.579 68.819,39.595 V 512 h 33.391 v -73.829 l 68.686,-39.656 63.937,36.915 16.696,-28.917 -63.937,-36.915 z m -204.151,79.312 v 0 l -68.701,39.663 -68.671,-39.51 v -79.466 l 68.551,-39.578 68.821,39.595 z M 187.313,221.867 v -79.466 l 68.686,-39.655 68.686,39.656 v 79.311 l -68.7,39.664 z m 154.053,187.396 -68.671,-39.511 v -79.465 l 68.686,-39.656 63.937,36.914 4.748,2.741 v 79.311 h 0.001 z"
           id="path3338"
           style="fill:#ffffff" />
      </g>
    </g>
    <path
       d="m 188.76251,147.88295 a 2.764135,2.764135 0 0 0 -3.06781,-4.59894 l -6.95645,4.63764 -13.61996,-6.80997 v -6.58336 a 2.7637897,2.7637897 0 0 0 -5.52757,0 v 6.58336 l -13.61996,6.80997 -6.95646,-4.63764 a 2.764135,2.764135 0 0 0 -3.06781,4.59894 l 7.06149,4.70674 v 19.15306 l -7.06149,4.69844 a 2.7641364,2.7641364 0 0 0 3.06781,4.59895 l 6.95646,-4.63764 13.61996,6.81827 v 6.58335 a 2.7637897,2.7637897 0 0 0 5.52757,0 v -6.58335 l 13.61996,-6.80997 6.95645,4.63763 a 2.7641347,2.7641347 0 0 0 3.06781,-4.59894 l -7.06149,-4.70674 v -19.15306 z m -12.58906,23.63041 -13.81895,6.90947 -13.81894,-6.90947 v -18.69428 l 13.81894,-6.90947 13.81895,6.90947 z"
       id="path3500"
       style="fill:#ffffff;stroke-width:2.76379" />
    <ellipse
       style="fill:#ffffff;fill-opacity:1;stroke:#de1c24;stroke-width:1.64091;stroke-linejoin:round;stroke-miterlimit:4;stroke-dasharray:none;stroke-opacity:1"
       id="path908"
       cx="104.03709"
       cy="101.0378"
       rx="73.130562"
       ry="69.781082" />
    <g
       id="g2560"
       transform="matrix(1.1611542,0,0,1.1611542,-15.90849,-17.808261)">
      <rect
         style="fill:#ffffff;fill-opacity:1;stroke:none;stroke-width:3;stroke-linejoin:round;stroke-miterlimit:4;stroke-dasharray:none;stroke-opacity:1"
         id="rect1726"
         width="77.914482"
         height="27.869295"
         x="65.312317"
         y="134.18285" />
      <g
         id="g1292"
         transform="matrix(0.59600796,0,0,0.59600796,13.237817,17.063541)">
        <path
           style="fill:#000000;fill-opacity:1;fill-rule:nonzero;stroke:none;stroke-width:0.264583"
           d="m 93.978111,167.67213 c 1.852083,-0.35278 3.439583,-0.44097 5.027083,-0.97014 3.704166,-1.32292 5.027086,-4.85069 2.645836,-8.02569 -4.586115,-6.35 -2.557642,-12.52361 2.02847,-16.58056 2.38125,-2.02847 2.73403,-4.58611 1.5875,-7.14375 -2.99861,-6.96736 -0.70556,-13.75833 4.6743,-17.72708 3.2632,-2.38125 2.99862,-5.37986 3.175,-8.55486 0.17639,-3.70417 1.32292,-6.96736 3.43959,-9.965974 0.79375,-1.146527 1.76389,-1.5875 3.0868,-1.41111 8.0257,1.058333 15.78681,2.645833 23.37153,5.468054 1.76389,0.61736 2.02847,1.32292 1.41111,2.91042 -4.14514,10.40694 -10.93611,17.90347 -22.40139,21.07847 0.44098,2.73403 0.79375,5.37986 1.32292,8.02569 1.14653,5.46806 2.20486,10.93612 3.70417,16.22778 2.29305,8.37847 8.29027,13.93472 15.08125,18.60903 2.64583,1.85208 5.64444,2.73402 8.81944,2.38125 2.38125,-0.35278 5.02708,-0.79375 6.96736,-2.02848 7.9375,-4.6743 14.11111,-11.0243 16.49236,-20.19652 1.05834,-4.14514 1.76389,-8.29028 2.55764,-12.52361 0.52917,-2.73403 0.97014,-5.46806 1.49931,-8.46667 -14.02292,-2.38125 -23.37153,-10.40694 -28.92778,-23.54791 6.08542,-1.76389 11.99444,-3.61598 17.90347,-5.11528 4.7625,-1.14653 9.525,-1.94028 14.2875,-2.73403 0.70556,-0.08819 1.76389,0.440973 2.20486,0.970139 2.64584,3.439581 3.96875,7.496531 3.88056,11.818051 -0.0882,2.91042 0.79375,4.93889 2.99861,6.79098 3.0868,2.46944 5.55625,5.55625 5.99722,9.61319 0.26458,2.02847 -0.17639,4.05695 -0.26458,6.08542 -0.0882,0.44097 -0.26459,0.88194 -0.44097,1.32291 -1.85209,3.70417 -1.23473,6.70278 1.94027,9.70139 4.05695,3.70417 4.49792,8.55486 1.85209,13.49375 -0.44098,0.79375 -0.97014,1.5875 -1.32292,2.46944 -1.23472,3.08681 0,5.99723 3.08681,7.05556 1.67569,0.52917 3.43958,0.52917 5.02708,0.79375 -1.94028,3.26319 -9.17222,3.96875 -15.08125,0.88194 1.32292,1.5875 2.38125,2.82223 3.35139,4.05695 4.23333,5.20347 4.49791,9.78958 0.97014,15.43403 -0.0882,0.26458 -0.17639,0.44097 -0.35278,0.88194 4.7625,2.38125 9.525,4.7625 14.2875,7.14375 -12.25903,15.08125 -21.51945,31.66181 -26.81111,50.53542 -0.35278,0 -0.88195,0.0882 -1.32292,0.0882 -20.28472,0 -40.56944,0 -60.85416,0 -3.43959,0 -3.35139,0 -4.32153,-3.26319 -3.08681,-10.75972 -7.76111,-20.81389 -13.67014,-30.33889 -3.615973,-5.90903 -7.672919,-11.46528 -11.641668,-17.28611 4.321529,-2.11667 8.907638,-4.49792 13.493748,-6.79097 -0.70555,-1.6757 -1.67569,-3.35139 -2.11666,-5.20348 -1.14653,-4.23333 0.17638,-7.8493 2.99861,-11.0243 1.67569,-1.76389 3.43958,-3.43959 5.02708,-5.46806 -5.46806,3.52778 -10.847916,4.8507 -16.668749,0.52917 z m 61.736109,37.57083 c -0.0882,0 -0.17639,0.0882 -0.35278,0.0882 0.44098,4.6743 0.88195,9.34861 1.23473,14.02291 0,0.35278 0.0882,0.79375 -0.0882,1.14653 -1.94028,3.70417 -3.96875,7.40833 -5.99723,11.28889 -1.67569,-2.99861 -3.175,-5.82083 -4.93888,-8.55486 -1.41112,-2.20486 -1.49931,-4.49792 -1.23473,-7.05556 0.44098,-3.43958 0.61736,-6.87916 0.79375,-10.40694 -0.0882,0 -0.17639,0 -0.26458,-0.0882 -1.14653,2.11667 -2.38125,4.32153 -3.70417,6.52639 -0.79375,-1.14652 -1.4993,-2.11666 -2.29305,-3.26319 3.26319,-5.99722 6.52639,-12.17083 9.87778,-18.25625 -6.52639,-3.70417 -12.7882,-7.40833 -19.1382,-11.02431 -0.35278,-0.17639 -0.88194,-0.35277 -1.14653,-0.17639 -2.91041,1.49931 -5.82083,3.175 -8.81944,4.7625 10.31875,18.43264 20.46111,36.6007 30.77986,55.12153 10.40694,-18.52083 20.5493,-36.68889 30.69166,-54.85694 -2.91042,-1.6757 -5.82083,-3.2632 -8.81944,-4.7625 -0.35278,-0.26459 -1.23473,-0.0882 -1.6757,0.17639 -2.99861,1.67569 -5.90902,3.43958 -8.90763,5.20347 -3.2632,1.85208 -6.4382,3.79236 -9.70139,5.64444 0.44097,0.88195 0.88194,1.6757 1.32292,2.46945 2.64583,4.7625 5.29166,9.61319 7.9375,14.37569 0.26458,0.52917 0.35277,1.41111 0.17639,1.85209 -0.44098,0.97013 -1.14653,1.76388 -1.85209,2.64583 -1.32292,-2.38125 -2.64584,-4.67431 -3.88056,-6.87917 z m -20.6375,-34.57222 c -0.26458,1.85208 -0.44097,3.52778 -0.79375,5.20347 -0.17639,0.97014 0.0882,1.49931 0.97014,1.94028 4.7625,2.55764 9.43681,5.20347 14.19931,7.76111 0.44097,0.17639 1.32291,0.26458 1.76388,0 4.93889,-2.64583 9.87778,-5.29167 14.81667,-8.02569 0.26458,-0.17639 0.70556,-0.70556 0.70556,-1.05834 -0.26459,-1.85208 -0.61736,-3.79236 -0.97014,-5.82083 -10.40695,8.90764 -19.05,9.96597 -30.69167,0 z m 43.83264,-53.00486 c -0.17639,-0.26458 -0.0882,-0.0882 0,0.0882 2.11667,2.02848 4.05694,4.32153 6.35,6.17361 3.70417,2.91042 5.64444,6.4382 4.93889,11.37709 0.26458,-0.35278 0.52916,-0.61736 0.70555,-0.88195 2.64584,-5.20347 0.61736,-12.78819 -6.35,-14.55208 -2.02847,-0.52917 -3.88055,-1.49931 -5.64444,-2.20486 z m -57.06181,1.14653 c -0.0882,-0.0882 -0.0882,-0.17639 -0.0882,-0.26458 -1.5875,0.35277 -3.175,0.97014 -4.7625,1.14652 -7.14375,0.88195 -10.31875,9.43681 -6.61458,15.52223 -0.52917,-6.26181 2.91042,-10.14236 7.40833,-13.40556 1.32292,-0.97014 2.64584,-2.02847 4.05695,-2.99861 z m -8.29027,26.81111 c -5.02709,7.76111 -1.05834,15.43403 3.35139,17.55069 -3.52778,-5.29166 -3.52778,-11.20069 -3.35139,-17.55069 z m 70.46736,17.4625 c 5.64444,-3.43959 7.58472,-11.55347 3.175,-16.84514 0.0882,5.82084 0.17639,11.64167 -3.175,16.84514 z m -64.38195,-19.13819 c -0.79375,-4.93889 -1.4993,-9.78959 -2.29305,-14.90486 -2.99861,4.58611 -1.85209,11.37708 2.29305,14.90486 z m 61.55972,-0.17639 c 3.52778,-2.55764 5.73264,-11.1125 2.02848,-14.2875 -0.61736,4.7625 -1.32292,9.70139 -2.02848,14.2875 z"
           id="path1271" />
        <path
           style="fill:#000000;fill-opacity:1;fill-rule:nonzero;stroke:none;stroke-width:0.264583"
           d="m 202.98644,82.388103 c -6.17361,2.116667 -12.08264,4.14514 -17.99166,6.173613 -0.44098,0.176387 -0.79375,0.881944 -0.88195,1.41111 -0.17639,0.881944 -0.0882,1.852084 -0.0882,3.175 -2.73403,0 -5.29167,-0.176389 -7.84931,0.08819 -8.02569,0.79375 -15.7868,3.086806 -23.45972,5.644446 -1.41111,0.440971 -2.64583,0.440971 -4.05694,-0.0882 -6.61458,-2.293046 -13.31736,-4.409713 -20.37291,-5.203463 -3.61597,-0.529166 -7.32014,-0.617362 -11.1125,-0.881946 0,0 -0.17639,-0.176387 -0.17639,-0.264583 0.61736,-2.99861 -1.05833,-3.96875 -3.52778,-4.850694 -7.23194,-2.38125 -14.375692,-5.027083 -21.519442,-7.584722 -0.176389,-0.08819 -0.352778,-0.176389 -1.146528,-0.440972 3.527778,-1.499306 6.438194,-2.910417 9.525,-4.145139 16.05139,-6.702778 32.01458,-13.405555 48.06597,-20.020138 1.14653,-0.529167 2.20486,-0.705556 3.43959,-0.176389 19.13819,7.9375 38.27638,15.786805 57.41458,23.724305 0.35278,0.176389 0.79375,0.440972 1.41111,0.705555 -0.35278,0.264584 -0.52917,0.352778 -0.70556,0.440973 -3.35139,1.411111 -3.35139,1.411111 -3.35139,5.027084 0,6.438193 -0.0882,12.788193 -0.0882,19.226387 0,0.52917 0.52917,1.05833 0.79375,1.5875 0.61736,1.23472 1.41111,2.55764 1.67569,3.88056 0.26459,1.41111 0.0882,2.91041 0.0882,4.40972 -0.0882,2.46944 -2.20486,4.23333 -4.8507,4.05694 -2.64583,-0.0882 -4.32152,-1.67569 -4.32152,-4.23333 0,-1.49931 0.0882,-2.91042 0,-4.40972 -0.0882,-1.76389 0.70555,-2.99861 2.11666,-3.96875 0.44098,-0.35278 0.97014,-0.97014 0.97014,-1.41111 0.0882,-7.143754 0,-14.375697 0,-21.872227 z"
           id="path1273" />
        <path
           style="fill:#000000;fill-opacity:1;fill-rule:nonzero;stroke:none;stroke-width:0.264583"
           d="m 66.814221,246.51796 c 0.529167,-8.73125 -0.970138,-17.28611 1.234723,-25.66458 2.557638,-10.23056 8.73125,-17.72708 17.903471,-22.84236 1.234723,-0.70556 1.675695,0.17639 2.204862,0.88194 3.96875,5.55625 8.025694,11.1125 11.641667,16.93334 5.291666,8.55486 9.701386,17.63888 12.435416,27.34027 0.26458,1.05834 0.52917,2.11667 0.79375,3.35139 -15.345833,0 -30.603472,0 -46.213889,0 z"
           id="path1275" />
        <path
           style="fill:#000000;fill-opacity:1;fill-rule:nonzero;stroke:none;stroke-width:0.264583"
           d="m 233.94269,246.51796 c -15.52222,0 -30.69166,0 -46.30208,0 0.97014,-3.26319 1.76389,-6.43819 2.91042,-9.4368 5.37986,-14.02292 12.78819,-26.89931 22.31319,-38.54098 0.79375,-0.88194 1.23472,-0.79375 2.11667,-0.35277 9.70139,5.37986 16.22777,13.40555 17.99166,24.42986 0.97014,6.52639 0.70556,13.22916 0.97014,19.84375 0,1.23472 0,2.55764 0,4.05694 z"
           id="path1277" />
      </g>
    </g>
    <path
       d="m 155.28274,19.17411 -12.97537,11.977243 12.97537,13.9735 m 32.43843,-25.950743 12.97538,11.977243 -12.97538,13.9735 M 177.98964,6.1987373 165.01427,58.100223"
       stroke="#000000"
       stroke-width="6.48769"
       stroke-linecap="round"
       stroke-linejoin="round"
       id="path2570"
       style="stroke:#de241c;stroke-opacity:1;fill:none" />
  </g>
</svg>
