<?xml version="1.0" encoding="UTF-8" standalone="no"?>
<!-- Created with Inkscape (http://www.inkscape.org/) -->

<svg
   xmlns:dc="http://purl.org/dc/elements/1.1/"
   xmlns:cc="http://creativecommons.org/ns#"
   xmlns:rdf="http://www.w3.org/1999/02/22-rdf-syntax-ns#"
   xmlns:svg="http://www.w3.org/2000/svg"
   xmlns="http://www.w3.org/2000/svg"
   xmlns:sodipodi="http://sodipodi.sourceforge.net/DTD/sodipodi-0.dtd"
   xmlns:inkscape="http://www.inkscape.org/namespaces/inkscape"
   width="210mm"
   height="297mm"
   viewBox="0 0 210 297"
   version="1.1"
   id="svg307"
   inkscape:version="0.92.2 5c3e80d, 2017-08-06"
   sodipodi:docname="molssi_integral.svg"
   inkscape:export-filename="/Users/jessica/Desktop/molssi_branding/logos/molssi_integral.png"
   inkscape:export-xdpi="500"
   inkscape:export-ydpi="500">
  <defs
     id="defs301">
    <clipPath
       clipPathUnits="userSpaceOnUse"
       id="clipPath100">
      <path
         d="M 320.4,190.677 H 903.6 V 601.324 H 320.4 Z"
         id="path98"
         inkscape:connector-curvature="0" />
    </clipPath>
    <clipPath
       clipPathUnits="userSpaceOnUse"
       id="clipPath100-6">
      <path
         d="M 320.4,190.677 H 903.6 V 601.324 H 320.4 Z"
         id="path98-6"
         inkscape:connector-curvature="0" />
    </clipPath>
    <clipPath
       clipPathUnits="userSpaceOnUse"
       id="clipPath100-6-4">
      <path
         d="M 320.4,190.677 H 903.6 V 601.324 H 320.4 Z"
         id="path98-6-2"
         inkscape:connector-curvature="0" />
    </clipPath>
    <clipPath
       clipPathUnits="userSpaceOnUse"
       id="clipPath100-6-0">
      <path
         d="M 320.4,190.677 H 903.6 V 601.324 H 320.4 Z"
         id="path98-6-3"
         inkscape:connector-curvature="0" />
    </clipPath>
    <clipPath
       clipPathUnits="userSpaceOnUse"
       id="clipPath100-0">
      <path
         d="M 320.4,190.677 H 903.6 V 601.324 H 320.4 Z"
         id="path98-1"
         inkscape:connector-curvature="0" />
    </clipPath>
    <clipPath
       clipPathUnits="userSpaceOnUse"
       id="clipPath100-0-3">
      <path
         d="M 320.4,190.677 H 903.6 V 601.324 H 320.4 Z"
         id="path98-1-5"
         inkscape:connector-curvature="0" />
    </clipPath>
    <clipPath
       clipPathUnits="userSpaceOnUse"
       id="clipPath100-0-1">
      <path
         d="M 320.4,190.677 H 903.6 V 601.324 H 320.4 Z"
         id="path98-1-8"
         inkscape:connector-curvature="0" />
    </clipPath>
    <clipPath
       clipPathUnits="userSpaceOnUse"
       id="clipPath100-0-3-0">
      <path
         d="M 320.4,190.677 H 903.6 V 601.324 H 320.4 Z"
         id="path98-1-5-8"
         inkscape:connector-curvature="0" />
    </clipPath>
  </defs>
  <sodipodi:namedview
     id="base"
     pagecolor="#ffffff"
     bordercolor="#666666"
     borderopacity="1.0"
     inkscape:pageopacity="0.0"
     inkscape:pageshadow="2"
     inkscape:zoom="2.0000001"
     inkscape:cx="196.6267"
     inkscape:cy="954.71161"
     inkscape:document-units="mm"
     inkscape:current-layer="layer2"
     showgrid="false"
     showguides="true"
     inkscape:guide-bbox="true"
     inkscape:window-width="1068"
     inkscape:window-height="919"
     inkscape:window-x="1400"
     inkscape:window-y="196"
     inkscape:window-maximized="0">
    <sodipodi:guide
       position="125.67708,114.82917"
       orientation="0,1"
       id="guide4952"
       inkscape:locked="false" />
  </sodipodi:namedview>
  <metadata
     id="metadata304">
    <rdf:RDF>
      <cc:Work
         rdf:about="">
        <dc:format>image/svg+xml</dc:format>
        <dc:type
           rdf:resource="http://purl.org/dc/dcmitype/StillImage" />
        <dc:title />
      </cc:Work>
    </rdf:RDF>
  </metadata>
  <g
     inkscape:groupmode="layer"
     id="layer2"
     inkscape:label="Layer 2"
     style="display:inline">
    <path
       id="path3270-1"
       d="m 62.011599,19.931562 c 0,1.39649 -1.0241,2.00164 -1.9551,2.00164 -0.88444,0 -1.90854,-0.60515 -1.90854,-1.95509 0,-0.6517 0.3724,-1.72235 1.72235,-1.90855 -1.0241,-0.88445 -2.46715,-0.97754 -2.93265,-0.97754 -2.09474,0 -3.67744,1.16374 -4.32913,9.728919 l -0.88445,11.59092 c -0.3724,5.16704 -2.0482,18.71305 -2.65335,21.13364 -1.02409,4.18949 -3.25849,8.23933 -7.68073,8.23933 -2.79299,0 -5.12048,-1.62924 -5.12048,-3.86364 0,-1.39649 1.0241,-2.00164 1.95509,-2.00164 0.88445,0 1.90855,0.60515 1.90855,1.95509 0,0.6517 -0.3724,1.72235 -1.72235,1.90855 0.97755,0.83789 2.37405,0.97754 2.97919,0.97754 2.65335,0 4.32914,-2.09474 4.93429,-9.72892 l 0.88445,-11.59092 c 0.41895,-5.63254 2.09474,-18.7596 2.65334,-21.31984 0.79135,-3.537789 2.6068,-8.053129 7.02903,-8.053129 2.793,0 5.12049,1.62924 5.12049,3.86364 z"
       inkscape:connector-curvature="0"
       style="display:inline;fill:#393536;fill-opacity:1;stroke-width:0.04654988" />
    <text
       xml:space="preserve"
       style="font-style:normal;font-weight:normal;font-size:2.53999996px;line-height:1.25;font-family:sans-serif;letter-spacing:0px;word-spacing:0px;fill:#000000;fill-opacity:1;stroke:none;stroke-width:0.26458332"
       x="61.383331"
       y="58.610416"
       id="text1174"><tspan
         sodipodi:role="line"
         id="tspan1172"
         x="61.383331"
         y="60.927734"
         style="stroke-width:0.26458332" /></text>
  </g>
  <g
     inkscape:label="Layer 1"
     inkscape:groupmode="layer"
     id="layer1"
     style="display:inline">
    <g
       transform="matrix(0.35277777,0,0,-0.35277777,-91.059394,218.2774)"
       id="g94">
      <g
         id="g96"
         clip-path="url(#clipPath100-0)">
        <path
           d="m 351.9784,475.7522 v 25.9 l -8.487,-16.851 h -5.867 l -8.549,16.851 v -25.9 h -8.675 v 44.435 h 8.55 l 11.608,-24.026 11.545,24.026 h 8.55 v -44.435 z"
           style="fill:#ed1c24;fill-opacity:1;fill-rule:nonzero;stroke:none"
           id="path114"
           inkscape:connector-curvature="0" />
        <path
           d="m 445.9569,475.7522 c -6.678,0 -9.487,4.681 -9.487,9.299 v 35.136 h 8.113 v -34.636 c 0,-1.935 0.812,-2.934 2.872,-2.934 h 3.119 v -6.865 z"
           style="fill:#ed1c24;fill-opacity:1;fill-rule:nonzero;stroke:none"
           id="path116"
           inkscape:connector-curvature="0" />
        <path
           d="m 482.4002,475.3787 c -6.739,0 -11.857,1.435 -16.226,5.866 l 5.617,5.617 c 2.809,-2.809 6.615,-3.745 10.734,-3.745 5.118,0 7.863,1.934 7.863,5.492 0,1.56 -0.437,2.87 -1.372,3.744 -0.874,0.812 -1.873,1.249 -3.933,1.56 l -5.366,0.75 c -3.808,0.561 -6.616,1.746 -8.612,3.681 -2.122,2.122 -3.184,4.994 -3.184,8.737 0,7.926 5.866,13.481 15.478,13.481 6.115,0 10.547,-1.499 14.352,-5.18 l -5.491,-5.43 c -2.808,2.685 -6.178,3.059 -9.111,3.059 -4.619,0 -6.865,-2.559 -6.865,-5.617 0,-1.124 0.374,-2.309 1.311,-3.183 0.873,-0.811 2.308,-1.499 4.119,-1.747 l 5.242,-0.749 c 4.057,-0.562 6.614,-1.686 8.487,-3.433 2.372,-2.247 3.433,-5.492 3.433,-9.423 0,-8.612 -7.177,-13.48 -16.476,-13.48"
           style="fill:#393536;fill-opacity:1;fill-rule:nonzero;stroke:none"
           id="path118"
           inkscape:connector-curvature="0" />
        <path
           d="m 531.38,475.3787 c -6.739,0 -11.857,1.435 -16.226,5.866 l 5.617,5.617 c 2.808,-2.809 6.615,-3.745 10.734,-3.745 5.118,0 7.863,1.934 7.863,5.492 0,1.56 -0.437,2.87 -1.372,3.744 -0.874,0.812 -1.873,1.249 -3.933,1.56 l -5.366,0.75 c -3.808,0.561 -6.616,1.746 -8.613,3.681 -2.121,2.122 -3.183,4.994 -3.183,8.737 0,7.926 5.867,13.481 15.478,13.481 6.115,0 10.547,-1.499 14.353,-5.18 l -5.492,-5.43 c -2.808,2.685 -6.178,3.059 -9.111,3.059 -4.619,0 -6.865,-2.559 -6.865,-5.617 0,-1.124 0.374,-2.309 1.311,-3.183 0.874,-0.811 2.308,-1.499 4.118,-1.747 l 5.243,-0.749 c 4.056,-0.562 6.615,-1.686 8.488,-3.433 2.371,-2.247 3.432,-5.492 3.432,-9.423 0,-8.612 -7.177,-13.48 -16.476,-13.48"
           style="fill:#393536;fill-opacity:1;fill-rule:nonzero;stroke:none"
           id="path120"
           inkscape:connector-curvature="0" />
        <path
           d="m 568.51,475.752 h 8.674 v 44.435 h -8.674 z"
           style="fill:#393536;fill-opacity:1;fill-rule:nonzero;stroke:none"
           id="path122"
           inkscape:connector-curvature="0" />
        <path
           d="m 398.2853,505.0527 c -4.876,0 -8.842,-3.967 -8.842,-8.842 0,-4.877 3.966,-8.843 8.842,-8.843 4.876,0 8.842,3.966 8.842,8.843 0,4.875 -3.966,8.842 -8.842,8.842 m 0,-25.713 c -9.303,0 -16.871,7.568 -16.871,16.871 0,9.302 7.568,16.87 16.871,16.87 9.303,0 16.87,-7.568 16.87,-16.87 0,-9.303 -7.567,-16.871 -16.87,-16.871"
           style="fill:#ed1c24;fill-opacity:1;fill-rule:nonzero;stroke:none"
           id="path124"
           inkscape:connector-curvature="0" />
        <g
           id="g3268"
           transform="matrix(0.13195241,0,0,0.13195241,345.89425,480.69848)" />
      </g>
    </g>
    <path
       style="fill:#393536;fill-opacity:1;fill-rule:nonzero;stroke-width:0.5"
       d="m 292.8767,190.50732 c -5.7358,-0.86268 -8.44538,-1.95574 -12.68009,-5.11522 l -2.68008,-1.9996 3.65805,-3.68263 c 3.61588,-3.64018 3.66984,-3.67187 4.68009,-2.74864 5.55913,5.08029 19.35112,5.36629 22.92245,0.47533 1.19946,-1.64265 1.29127,-5.62399 0.17929,-7.77433 -1.09277,-2.1132 -3.39303,-3.04728 -9.67107,-3.92724 -6.53612,-0.91612 -8.67523,-1.4651 -11.7192,-3.0076 -4.84425,-2.45477 -7.43944,-7.24458 -7.43944,-13.7306 0,-10.30376 6.81827,-16.87599 18.43343,-17.76824 6.91916,-0.53151 14.54335,1.5524 18.95609,5.18125 l 1.63953,1.34828 -3.46903,3.44144 -3.46903,3.44144 -1.51246,-1.07696 c -3.92073,-2.79181 -12.0105,-3.63128 -15.89523,-1.64944 -5.26753,2.68729 -5.56163,9.61356 -0.51182,12.05367 1.14318,0.55239 4.44102,1.35198 7.32852,1.77686 10.78523,1.58699 15.07551,3.87692 17.55349,9.36915 1.01297,2.24515 1.19312,3.43553 1.19468,7.89384 0.002,4.87546 -0.10298,5.43918 -1.46721,7.90177 -4.25429,7.67947 -14.2587,11.36804 -26.03096,9.59747 z"
       id="path4534"
       inkscape:connector-curvature="0"
       transform="scale(0.26458333)" />
    <path
       style="fill:#393536;fill-opacity:1;fill-rule:nonzero;stroke-width:0.5"
       d="m 356.75353,190.29419 c -4.32476,-0.82378 -9.21415,-3.01531 -11.80768,-5.29247 l -1.88349,-1.65372 3.39376,-3.41996 c 1.86657,-1.88098 3.56196,-3.41996 3.76755,-3.41996 0.20558,0 1.33662,0.67082 2.51341,1.49072 3.0172,2.10216 7.67987,3.17421 12.62408,2.90256 6.73696,-0.37015 9.77459,-2.7028 9.75816,-7.49345 -0.0157,-4.57243 -2.34099,-6.50871 -8.86421,-7.38118 -12.32383,-1.64829 -16.7112,-3.89621 -19.55387,-10.01865 -1.05508,-2.27242 -1.27605,-3.48809 -1.27238,-7 0.004,-3.58972 0.2242,-4.73531 1.41886,-7.37374 2.59502,-5.73113 7.67412,-9.14091 15.20175,-10.20545 7.22508,-1.02176 15.23726,0.812 20.30117,4.64637 l 2.22243,1.68282 -3.39877,3.42127 -3.39877,3.42127 -2.71633,-1.533 c -4.67033,-2.63577 -12.38634,-3.01525 -15.80209,-0.77717 -1.87357,1.22762 -3.12648,3.72312 -3.12855,6.23137 -0.004,4.35118 2.45414,5.97876 10.90685,7.22282 7.00339,1.03076 9.69808,1.82043 12.6915,3.7192 2.89073,1.83364 4.61676,4.37132 5.62781,8.27429 2.63164,10.15892 -2.12088,18.65451 -12.20682,21.82082 -4.21394,1.3229 -11.5759,1.65306 -16.39437,0.73524 z"
       id="path4536"
       inkscape:connector-curvature="0"
       transform="scale(0.26458333)" />
    <path
       style="fill:#393536;fill-opacity:1;fill-rule:nonzero;stroke-width:0.5"
       d="m 356.66463,190.24596 c -4.22663,-0.765 -10.1321,-3.48513 -12.15608,-5.59924 l -1.36815,-1.42906 3.49983,-3.47302 c 3.03361,-3.01036 3.61551,-3.39125 4.36815,-2.85925 7.79764,5.51174 20.70079,5.42345 23.3502,-0.15977 1.72642,-3.63816 0.32215,-8.11925 -2.97627,-9.49742 -0.94736,-0.39583 -4.14868,-1.06948 -7.11405,-1.49699 -10.82507,-1.56063 -14.80184,-3.762 -17.5648,-9.72313 -1.0452,-2.25505 -1.27693,-3.51492 -1.28749,-7 -0.011,-3.63042 0.19553,-4.7054 1.41664,-7.37374 1.6788,-3.66848 4.73338,-6.69973 8.45651,-8.39194 8.4791,-3.85384 20.85621,-2.33351 27.95957,3.4344 l 1.372,1.11405 -3.39898,3.37294 -3.39899,3.37294 -3.17591,-1.63932 c -2.8371,-1.46445 -3.68766,-1.65512 -7.97301,-1.78734 -3.84379,-0.11859 -5.1429,0.0305 -6.53714,0.75 -3.56318,1.83891 -5.02315,6.23839 -3.22447,9.71665 1.06948,2.06814 3.95266,3.24273 10.25773,4.17891 12.0689,1.79202 16.26045,4.55395 18.1848,11.9825 4.04066,15.59815 -9.25158,26.02612 -28.69009,22.50783 z"
       id="path4538"
       inkscape:connector-curvature="0"
       transform="scale(0.26458333)" />
    <path
       style="fill:#393536;fill-opacity:1;fill-rule:nonzero;stroke-width:0.5"
       d="m 414.12669,161.00808 v -29.5 h 5.5 5.5 v 29.5 29.5 h -5.5 -5.5 z"
       id="path4540"
       inkscape:connector-curvature="0"
       transform="scale(0.26458333)" />
  </g>
  <g
     inkscape:groupmode="layer"
     id="layer4"
     inkscape:label="Integral text" />
</svg>
