<?xml version="1.0" encoding="UTF-8" standalone="no"?>
<!-- Created with Inkscape (http://www.inkscape.org/) -->

<svg
   xmlns:dc="http://purl.org/dc/elements/1.1/"
   xmlns:cc="http://creativecommons.org/ns#"
   xmlns:rdf="http://www.w3.org/1999/02/22-rdf-syntax-ns#"
   xmlns:svg="http://www.w3.org/2000/svg"
   xmlns="http://www.w3.org/2000/svg"
   xmlns:sodipodi="http://sodipodi.sourceforge.net/DTD/sodipodi-0.dtd"
   xmlns:inkscape="http://www.inkscape.org/namespaces/inkscape"
   width="210mm"
   height="297mm"
   viewBox="0 0 210 297"
   version="1.1"
   id="svg307"
   inkscape:version="0.92.1 r15371"
   sodipodi:docname="molssi_integral2.svg">
  <defs
     id="defs301">
    <clipPath
       clipPathUnits="userSpaceOnUse"
       id="clipPath100">
      <path
         d="M 320.4,190.677 H 903.6 V 601.324 H 320.4 Z"
         id="path98"
         inkscape:connector-curvature="0" />
    </clipPath>
    <clipPath
       clipPathUnits="userSpaceOnUse"
       id="clipPath100-6">
      <path
         d="M 320.4,190.677 H 903.6 V 601.324 H 320.4 Z"
         id="path98-6"
         inkscape:connector-curvature="0" />
    </clipPath>
    <clipPath
       clipPathUnits="userSpaceOnUse"
       id="clipPath100-6-4">
      <path
         d="M 320.4,190.677 H 903.6 V 601.324 H 320.4 Z"
         id="path98-6-2"
         inkscape:connector-curvature="0" />
    </clipPath>
    <clipPath
       clipPathUnits="userSpaceOnUse"
       id="clipPath100-6-0">
      <path
         d="M 320.4,190.677 H 903.6 V 601.324 H 320.4 Z"
         id="path98-6-3"
         inkscape:connector-curvature="0" />
    </clipPath>
    <clipPath
       clipPathUnits="userSpaceOnUse"
       id="clipPath100-0">
      <path
         d="M 320.4,190.677 H 903.6 V 601.324 H 320.4 Z"
         id="path98-1"
         inkscape:connector-curvature="0" />
    </clipPath>
    <clipPath
       clipPathUnits="userSpaceOnUse"
       id="clipPath100-0-3">
      <path
         d="M 320.4,190.677 H 903.6 V 601.324 H 320.4 Z"
         id="path98-1-5"
         inkscape:connector-curvature="0" />
    </clipPath>
    <clipPath
       clipPathUnits="userSpaceOnUse"
       id="clipPath100-0-1">
      <path
         d="M 320.4,190.677 H 903.6 V 601.324 H 320.4 Z"
         id="path98-1-8"
         inkscape:connector-curvature="0" />
    </clipPath>
    <clipPath
       clipPathUnits="userSpaceOnUse"
       id="clipPath100-0-3-0">
      <path
         d="M 320.4,190.677 H 903.6 V 601.324 H 320.4 Z"
         id="path98-1-5-8"
         inkscape:connector-curvature="0" />
    </clipPath>
  </defs>
  <sodipodi:namedview
     id="base"
     pagecolor="#ffffff"
     bordercolor="#666666"
     borderopacity="1.0"
     inkscape:pageopacity="0.0"
     inkscape:pageshadow="2"
     inkscape:zoom="1.4142136"
     inkscape:cx="212.80216"
     inkscape:cy="826.35259"
     inkscape:document-units="mm"
     inkscape:current-layer="layer4"
     showgrid="false"
     showguides="true"
     inkscape:guide-bbox="true"
     inkscape:window-width="2048"
     inkscape:window-height="1089"
     inkscape:window-x="-8"
     inkscape:window-y="-8"
     inkscape:window-maximized="1">
    <sodipodi:guide
       position="125.67708,114.82917"
       orientation="0,1"
       id="guide4952"
       inkscape:locked="false" />
  </sodipodi:namedview>
  <metadata
     id="metadata304">
    <rdf:RDF>
      <cc:Work
         rdf:about="">
        <dc:format>image/svg+xml</dc:format>
        <dc:type
           rdf:resource="http://purl.org/dc/dcmitype/StillImage" />
        <dc:title></dc:title>
      </cc:Work>
    </rdf:RDF>
  </metadata>
  <g
     inkscape:groupmode="layer"
     id="layer2"
     inkscape:label="Layer 2"
     style="display:inline">
    <path
       id="path3270-1"
       d="m 62.011599,19.931562 c 0,1.39649 -1.0241,2.00164 -1.9551,2.00164 -0.88444,0 -1.90854,-0.60515 -1.90854,-1.95509 0,-0.6517 0.3724,-1.72235 1.72235,-1.90855 -1.0241,-0.88445 -2.46715,-0.97754 -2.93265,-0.97754 -2.09474,0 -3.67744,1.16374 -4.32913,9.728919 l -0.88445,11.59092 c -0.3724,5.16704 -2.0482,18.71305 -2.65335,21.13364 -1.02409,4.18949 -3.25849,8.23933 -7.68073,8.23933 -2.79299,0 -5.12048,-1.62924 -5.12048,-3.86364 0,-1.39649 1.0241,-2.00164 1.95509,-2.00164 0.88445,0 1.90855,0.60515 1.90855,1.95509 0,0.6517 -0.3724,1.72235 -1.72235,1.90855 0.97755,0.83789 2.37405,0.97754 2.97919,0.97754 2.65335,0 4.32914,-2.09474 4.93429,-9.72892 l 0.88445,-11.59092 c 0.41895,-5.63254 2.09474,-18.7596 2.65334,-21.31984 0.79135,-3.537789 2.6068,-8.053129 7.02903,-8.053129 2.793,0 5.12049,1.62924 5.12049,3.86364 z"
       inkscape:connector-curvature="0"
       style="display:inline;fill:#383536;fill-opacity:1;stroke-width:0.04654988" />
    <text
       xml:space="preserve"
       style="font-style:normal;font-weight:normal;font-size:2.53999996px;line-height:1.25;font-family:sans-serif;letter-spacing:0px;word-spacing:0px;fill:#000000;fill-opacity:1;stroke:none;stroke-width:0.26458332"
       x="61.383331"
       y="58.610416"
       id="text1174"><tspan
         sodipodi:role="line"
         id="tspan1172"
         x="61.383331"
         y="60.927734"
         style="stroke-width:0.26458332" /></text>
  </g>
  <g
     inkscape:label="Layer 1"
     inkscape:groupmode="layer"
     id="layer1"
     style="display:inline">
    <g
       transform="matrix(0.35277777,0,0,-0.35277777,-91.059394,218.2774)"
       id="g94">
      <g
         id="g96"
         clip-path="url(#clipPath100-0)">
        <path
           d="m 351.9784,475.7522 v 25.9 l -8.487,-16.851 h -5.867 l -8.549,16.851 v -25.9 h -8.675 v 44.435 h 8.55 l 11.608,-24.026 11.545,24.026 h 8.55 v -44.435 z"
           style="fill:#ed1c24;fill-opacity:1;fill-rule:nonzero;stroke:none"
           id="path114"
           inkscape:connector-curvature="0" />
        <path
           d="m 445.9569,475.7522 c -6.678,0 -9.487,4.681 -9.487,9.299 v 35.136 h 8.113 v -34.636 c 0,-1.935 0.812,-2.934 2.872,-2.934 h 3.119 v -6.865 z"
           style="fill:#ed1c24;fill-opacity:1;fill-rule:nonzero;stroke:none"
           id="path116"
           inkscape:connector-curvature="0" />
        <path
           d="m 482.4002,475.3787 c -6.739,0 -11.857,1.435 -16.226,5.866 l 5.617,5.617 c 2.809,-2.809 6.615,-3.745 10.734,-3.745 5.118,0 7.863,1.934 7.863,5.492 0,1.56 -0.437,2.87 -1.372,3.744 -0.874,0.812 -1.873,1.249 -3.933,1.56 l -5.366,0.75 c -3.808,0.561 -6.616,1.746 -8.612,3.681 -2.122,2.122 -3.184,4.994 -3.184,8.737 0,7.926 5.866,13.481 15.478,13.481 6.115,0 10.547,-1.499 14.352,-5.18 l -5.491,-5.43 c -2.808,2.685 -6.178,3.059 -9.111,3.059 -4.619,0 -6.865,-2.559 -6.865,-5.617 0,-1.124 0.374,-2.309 1.311,-3.183 0.873,-0.811 2.308,-1.499 4.119,-1.747 l 5.242,-0.749 c 4.057,-0.562 6.614,-1.686 8.487,-3.433 2.372,-2.247 3.433,-5.492 3.433,-9.423 0,-8.612 -7.177,-13.48 -16.476,-13.48"
           style="fill:#393536;fill-opacity:1;fill-rule:nonzero;stroke:none"
           id="path118"
           inkscape:connector-curvature="0" />
        <path
           d="m 531.38,475.3787 c -6.739,0 -11.857,1.435 -16.226,5.866 l 5.617,5.617 c 2.808,-2.809 6.615,-3.745 10.734,-3.745 5.118,0 7.863,1.934 7.863,5.492 0,1.56 -0.437,2.87 -1.372,3.744 -0.874,0.812 -1.873,1.249 -3.933,1.56 l -5.366,0.75 c -3.808,0.561 -6.616,1.746 -8.613,3.681 -2.121,2.122 -3.183,4.994 -3.183,8.737 0,7.926 5.867,13.481 15.478,13.481 6.115,0 10.547,-1.499 14.353,-5.18 l -5.492,-5.43 c -2.808,2.685 -6.178,3.059 -9.111,3.059 -4.619,0 -6.865,-2.559 -6.865,-5.617 0,-1.124 0.374,-2.309 1.311,-3.183 0.874,-0.811 2.308,-1.499 4.118,-1.747 l 5.243,-0.749 c 4.056,-0.562 6.615,-1.686 8.488,-3.433 2.371,-2.247 3.432,-5.492 3.432,-9.423 0,-8.612 -7.177,-13.48 -16.476,-13.48"
           style="fill:#393536;fill-opacity:1;fill-rule:nonzero;stroke:none"
           id="path120"
           inkscape:connector-curvature="0" />
        <path
           d="m 568.51,475.752 h 8.674 v 44.435 h -8.674 z"
           style="fill:#393536;fill-opacity:1;fill-rule:nonzero;stroke:none"
           id="path122"
           inkscape:connector-curvature="0" />
        <path
           d="m 398.2853,505.0527 c -4.876,0 -8.842,-3.967 -8.842,-8.842 0,-4.877 3.966,-8.843 8.842,-8.843 4.876,0 8.842,3.966 8.842,8.843 0,4.875 -3.966,8.842 -8.842,8.842 m 0,-25.713 c -9.303,0 -16.871,7.568 -16.871,16.871 0,9.302 7.568,16.87 16.871,16.87 9.303,0 16.87,-7.568 16.87,-16.87 0,-9.303 -7.567,-16.871 -16.87,-16.871"
           style="fill:#ed1c24;fill-opacity:1;fill-rule:nonzero;stroke:none"
           id="path124"
           inkscape:connector-curvature="0" />
        <g
           id="g3268"
           transform="matrix(0.13195241,0,0,0.13195241,345.89425,480.69848)" />
      </g>
    </g>
  </g>
  <g
     inkscape:groupmode="layer"
     id="layer4"
     inkscape:label="Integral text">
    <text
       xml:space="preserve"
       style="font-style:normal;font-variant:normal;font-weight:300;font-stretch:normal;font-size:2.53999996px;line-height:1.25;font-family:montserrat;-inkscape-font-specification:'montserrat Light';letter-spacing:0px;word-spacing:0px;fill:#383536;fill-opacity:1;stroke:none;stroke-width:0.26458332"
       x="52.757832"
       y="60.617496"
       id="text1179"><tspan
         sodipodi:role="line"
         id="tspan1177"
         x="52.757832"
         y="60.617496"
         style="font-style:normal;font-variant:normal;font-weight:300;font-stretch:normal;font-size:7.05555534px;font-family:montserrat;-inkscape-font-specification:'montserrat Light';fill:#383536;fill-opacity:1;stroke-width:0.26458332">Integral Reference Project</tspan></text>
  </g>
</svg>
